HIERARCHY
ROOT Hips
{
    OFFSET 0.000000 0.000000 0.000000
    CHANNELS 6 Xposition Yposition Zposition Zrotation Xrotation Yrotation
    JOINT Spine
    {
        OFFSET -0.000000 0.083210 0.000000
        CHANNELS 3 Zrotation Xrotation Yrotation
        JOINT Spine1
        {
            OFFSET -0.000000 0.256334 0.000000
            CHANNELS 3 Zrotation Xrotation Yrotation
            JOINT Neck
            {
                OFFSET -0.000000 0.275576 0.002912
                CHANNELS 3 Zrotation Xrotation Yrotation
                JOINT Head
                {
                    OFFSET -0.000000 0.157287 0.020295
                    CHANNELS 3 Zrotation Xrotation Yrotation
                    End Site
                    {
                        OFFSET -0.000000 0.202951 0.000000
                    }
                }
            }
            JOINT LeftShoulder
            {
                OFFSET 0.041044 0.235234 -0.000041
                CHANNELS 3 Zrotation Xrotation Yrotation
                JOINT LeftArm
                {
                    OFFSET 0.117964 0.000000 0.000000
                    CHANNELS 3 Zrotation Xrotation Yrotation
                    JOINT LeftForeArm
                    {
                        OFFSET 0.291248 0.000000 0.000000
                        CHANNELS 3 Zrotation Xrotation Yrotation
                        JOINT LeftHand
                        {
                            OFFSET 0.245673 0.000000 0.000000
                            CHANNELS 3 Zrotation Xrotation Yrotation
                            End Site
                            {
                                OFFSET 0.152213 0.000000 0.000000
                            }
                        }
                    }
                }
            }
            JOINT RightShoulder
            {
                OFFSET -0.040052 0.235234 -0.000041
                CHANNELS 3 Zrotation Xrotation Yrotation
                JOINT RightArm
                {
                    OFFSET -0.117964 0.000000 0.000000
                    CHANNELS 3 Zrotation Xrotation Yrotation
                    JOINT RightForeArm
                    {
                        OFFSET -0.291248 0.000000 0.000000
                        CHANNELS 3 Zrotation Xrotation Yrotation
                        JOINT RightHand
                        {
                            OFFSET -0.245673 0.000000 0.000000
                            CHANNELS 3 Zrotation Xrotation Yrotation
                            End Site
                            {
                                OFFSET -0.152213 0.000000 0.000000
                            }
                        }
                    }
                }
            }
        }
    }
    JOINT LeftUpLeg
    {
        OFFSET 0.101475 0.000000 0.000000
        CHANNELS 3 Zrotation Xrotation Yrotation
        JOINT LeftLeg
        {
            OFFSET -0.000000 -0.446535 0.000000
            CHANNELS 3 Zrotation Xrotation Yrotation
            JOINT LeftFoot
            {
                OFFSET -0.000000 -0.400037 0.000000
                CHANNELS 3 Zrotation Xrotation Yrotation
                JOINT LeftToeBase
                {
                    OFFSET -0.000000 -0.065959 0.152213
                    CHANNELS 3 Zrotation Xrotation Yrotation
                    End Site
                    {
                        OFFSET -0.000000 0.000000 0.040590
                    }
                }
            }
        }
    }
    JOINT RightUpLeg
    {
        OFFSET -0.101475 0.000000 0.000000
        CHANNELS 3 Zrotation Xrotation Yrotation
        JOINT RightLeg
        {
            OFFSET -0.000000 -0.446535 0.000000
            CHANNELS 3 Zrotation Xrotation Yrotation
            JOINT RightFoot
            {
                OFFSET -0.000000 -0.400037 0.000000
                CHANNELS 3 Zrotation Xrotation Yrotation
                JOINT RightToeBase
                {
                    OFFSET -0.000000 -0.065959 0.152213
                    CHANNELS 3 Zrotation Xrotation Yrotation
                    End Site
                    {
                        OFFSET -0.000000 0.000000 0.040590
                    }
                }
            }
        }
    }
}
MOTION
Frames:    6
Frame Time:    0.008333
-0.931628    0.942549    0.041812    1.599636    -0.670063    5.984170    -5.718892    -0.719897    -4.541814    0.550199    -0.428729    -1.497543    -0.303622    6.924144    0.109436    0.329959    1.909922    0.006281    19.579754    -4.213896    -2.756493    -24.849674    1.720021    5.944580    -1.582483    7.233632    3.209301    0.523491    7.279914    0.508868    -10.284494    -3.850602    1.779451    27.621235    -2.292351    3.863441    -2.119778    -6.067650    -1.337089    -20.288488    -3.182475    -16.205420    3.870260    4.338778    1.116853    -0.416895    1.757139    0.018053    -4.845348    -4.747575    3.646700    0.035243    1.522179    -0.355871    -3.379635    3.983899    2.873381    2.699926    9.678703    4.201947    -0.457760    -12.436526    -23.623390    -0.048352    -1.457785    -1.261580    
-0.931712    0.942553    0.042049    1.597792    -0.655910    5.983132    -5.686492    -0.728398    -4.557046    0.468551    -0.445322    -1.502812    -0.209415    6.918399    0.097048    0.300482    1.897409    0.016832    19.650663    -4.207888    -2.747536    -24.899080    1.728298    5.935121    -1.582788    7.230999    3.203858    0.530848    7.277339    0.525119    -10.203869    -3.838870    1.765781    27.639681    -2.096782    3.861391    -2.181310    -6.167411    -1.376984    -20.180735    -3.290885    -16.255314    3.880056    4.332022    1.115884    -0.421817    1.770496    0.041349    -4.854546    -4.757216    3.626297    0.035880    1.532422    -0.361981    -3.374171    3.979652    2.891845    2.707607    9.686702    4.193056    -0.465171    -12.446545    -23.635353    -0.048430    -1.461886    -1.262446    
-0.931806    0.942556    0.042280    1.597146    -0.642596    5.982240    -5.729946    -0.747585    -4.575730    0.554523    -0.431716    -1.508339    -0.256261    6.900868    0.106660    0.324168    1.891213    0.013560    19.572630    -4.227088    -2.740043    -24.894199    1.757663    5.928025    -1.589354    7.208234    3.181639    0.588713    7.254915    0.566893    -10.235962    -3.838029    1.749246    27.665224    -2.121735    3.858864    -2.168900    -6.179188    -1.385360    -20.191565    -3.298796    -16.268156    3.890363    4.322457    1.125455    -0.428529    1.790973    0.041376    -4.860207    -4.768502    3.618192    0.036424    1.540249    -0.367212    -3.367361    3.973552    2.897304    2.710412    9.699318    4.175150    -0.467814    -12.456977    -23.625334    -0.048497    -1.465487    -1.263164    
-0.931887    0.942564    0.042516    1.599252    -0.630949    5.980518    -5.699411    -0.748797    -4.592853    0.469215    -0.456696    -1.514334    -0.160536    6.904643    0.091140    0.298589    1.874964    0.020379    19.646851    -4.211286    -2.725744    -24.941307    1.762653    5.906878    -1.589814    7.214697    3.195060    0.578661    7.261608    0.582026    -10.157143    -3.825648    1.740210    27.677790    -2.109943    3.845689    -2.164769    -6.222763    -1.392036    -20.269373    -3.324400    -16.305347    3.895154    4.314130    1.137617    -0.430307    1.813697    0.042141    -4.868558    -4.782269    3.604269    0.036435    1.554757    -0.366860    -3.366690    3.971283    2.905734    2.717564    9.709038    4.181625    -0.475469    -12.463738    -23.640028    -0.048528    -1.471806    -1.262164    
-0.931975    0.942568    0.042761    1.601122    -0.624176    5.977753    -5.742650    -0.762687    -4.613183    0.552436    -0.442393    -1.520499    -0.208800    6.890920    0.097723    0.320088    1.867555    0.014929    19.571779    -4.225757    -2.729668    -24.929996    1.766798    5.924914    -1.595072    7.232544    3.197676    0.541829    7.279534    0.600035    -10.186844    -3.825783    1.730760    27.717138    -2.102001    3.843069    -2.188354    -6.269091    -1.405073    -20.262148    -3.360747    -16.369905    3.901282    4.311852    1.155721    -0.431746    1.835777    0.035915    -4.880934    -4.795869    3.592053    0.035629    1.564525    -0.358438    -3.362986    3.973516    2.905148    2.720456    9.720704    4.180282    -0.482582    -12.474871    -23.637468    -0.048435    -1.470348    -1.260140    
-0.932068    0.942578    0.043005    1.601117    -0.618088    5.976045    -5.707548    -0.759935    -4.625445    0.462742    -0.464524    -1.524960    -0.107796    6.889372    0.076199    0.291544    1.860111    0.015603    19.648060    -4.212168    -2.728828    -24.977819    1.768702    5.913578    -1.597363    7.231819    3.203799    0.540323    7.278946    0.596150    -10.102682    -3.805811    1.720494    27.732859    -2.093164    3.825396    -2.209748    -6.363802    -1.399638    -20.019197    -3.467675    -16.505239    3.909993    4.309664    1.170509    -0.435072    1.857540    0.037933    -4.888531    -4.806108    3.580105    0.036487    1.565392    -0.367052    -3.356869    3.975989    2.896955    2.721721    9.733574    4.195078    -0.489225    -12.486955    -23.647081    -0.048313    -1.477153    -1.255033    
